<svg version="1.1" xmlns="http://www.w3.org/2000/svg" preserveAspectRatio="xMidYMid meet" viewBox="0 0 640 640" width="100%" height="100%">
   <defs>
      <path d="M191.24 368.25L0 501.79L0 625.86L373.63 368.25L0 108.12L0 233.97L191.24 368.25Z" id="g1k2NU3x5t"></path>
      <path d="M191.24 368.25L0 501.79L0 625.86L373.63 368.25L0 108.12L0 233.97L191.24 368.25Z" id="h5ybFUGYpJ"></path>
      <path d="M442.76 257.74L634 124.22L634 0.14L260.37 257.74L634 517.88L634 392.03L442.76 257.74Z" id="a1jMJ87sWs"></path>
      <path d="M316.39 149.8C316.39 190.91 283.01 224.28 241.9 224.28C200.79 224.28 167.41 190.91 167.41 149.8C167.41 108.68 200.79 75.31 241.9 75.31C283.01 75.31 316.39 108.68 316.39 149.8Z" id="eANVhM7O"></path>
   </defs>
   <g>
      <g>
         <g>
            <use xlink:href="#g1k2NU3x5t" opacity="1" fill="#afb42b" fill-opacity="1"></use>
            <g>
               <use xlink:href="#g1k2NU3x5t" opacity="1" fill-opacity="0" stroke="#000000" stroke-width="0" stroke-opacity="0"></use>
            </g>
         </g>
         <g>
            <use xlink:href="#a1jMJ87sWs" opacity="1" fill="#fff" fill-opacity="1"></use>
            <g>
               <use xlink:href="#a1jMJ87sWs" opacity="1" fill-opacity="0" stroke="#000000" stroke-width="0" stroke-opacity="0"></use>
            </g>
         </g>
         <g>
            <use xlink:href="#eANVhM7O" opacity="1" fill="#fff" fill-opacity="1"></use>
         </g>
      </g>
   </g>
</svg>